PathFileType	4	(X/Y/Z)	C:/Users/opensim2020/Desktop/walking_exp_matlab/subject03_walking11_straight_01.trc	
DataRate	CameraRate	NumFrames	NumMarkers	Units	OrigDataRate	OrigDataStartFrame	OrigNumFrames	
100.00	100.00	8	46	mm	100.00	917	454	
Frame#	Time	LFHD			RFHD			LBHD			RBHD			C7			T10			CLAV			STRN			RBAK			LSHO			LUPA			LELB			LFRM			LWRA			LWRB			LFIN			RSHO			RUPA			RELB			RFRM			RWRA			RWRB			RFIN			LASI			RASI			LPSI			RPSI			LTHI			LKNE			LTIB			LANK			LHEE			LTOE			RTHI			RKNE			RTIB			RANK			RHEE			RTOE			*39			*40			*41			*42			*43			*44			*45			
		X1	Y1	Z1	X2	Y2	Z2	X3	Y3	Z3	X4	Y4	Z4	X5	Y5	Z5	X6	Y6	Z6	X7	Y7	Z7	X8	Y8	Z8	X9	Y9	Z9	X10	Y10	Z10	X11	Y11	Z11	X12	Y12	Z12	X13	Y13	Z13	X14	Y14	Z14	X15	Y15	Z15	X16	Y16	Z16	X17	Y17	Z17	X18	Y18	Z18	X19	Y19	Z19	X20	Y20	Z20	X21	Y21	Z21	X22	Y22	Z22	X23	Y23	Z23	X24	Y24	Z24	X25	Y25	Z25	X26	Y26	Z26	X27	Y27	Z27	X28	Y28	Z28	X29	Y29	Z29	X30	Y30	Z30	X31	Y31	Z31	X32	Y32	Z32	X33	Y33	Z33	X34	Y34	Z34	X35	Y35	Z35	X36	Y36	Z36	X37	Y37	Z37	X38	Y38	Z38	X39	Y39	Z39	X40	Y40	Z40	X41	Y41	Z41	X42	Y42	Z42	X43	Y43	Z43	X44	Y44	Z44	X45	Y45	Z45	X46	Y46	Z46	

284	2.830	1365.54224	333.38129	1613.15479	1498.15649	325.12347	1620.01563	1363.20593	203.64661	1575.37158	1494.38684	200.26846	1581.53503	1415.87646	166.49928	1417.31897	1412.36560	123.61755	1104.31995	1425.59570	286.59879	1338.22803	1419.51099	324.71442	1172.19604	1504.86682	100.69399	1242.40564	1268.67627	256.94437	1378.45435	1189.78003	284.36496	1190.67664	1175.84448	322.57938	1074.82971	1185.77405	393.99902	967.55261	1226.30859	453.33267	868.82953	1173.08960	438.26364	863.11401	1189.22595	488.04483	797.50714	1581.77747	226.50336	1362.24634	1653.69482	210.68718	1140.62622	1667.11523	222.62509	1028.04773	1667.71118	239.03807	891.83356	1630.99597	269.47855	797.00299	1674.95618	238.09970	791.79730	1664.10156	261.17432	720.56104	1301.09863	291.19135	936.72699	1539.12036	284.60538	939.41217	1348.46021	128.28349	961.60272	1496.88892	124.20663	965.09668	1271.37781	212.25085	636.51685	1312.51355	192.25015	460.34296	1310.31384	115.80775	278.29953	1352.74194	62.12657	74.77026	1387.14026	16.84042	42.21316	1374.28894	210.83241	34.60457	1595.58533	287.86575	647.81616	1563.56958	366.06259	484.41876	1573.20740	361.41495	296.84900	1537.23767	388.43387	79.82503	1481.19885	353.97461	42.15345	1529.52002	530.88751	57.41603	1413.13245	250.27788	1678.53418																		 
285	2.840	1366.81396	340.63651	1612.44507	1499.39551	332.15793	1618.93286	1364.27686	210.82806	1574.66443	1495.43445	207.29276	1580.49316	1416.72852	173.54384	1416.53625	1413.05786	130.29251	1103.57629	1426.32056	293.63223	1337.27563	1420.03625	331.56302	1171.23743	1505.56140	107.88488	1241.52271	1269.38867	263.90253	1377.65918	1190.53394	291.53918	1189.92529	1176.75037	329.85175	1074.03796	1187.08850	402.22067	967.55951	1228.04443	462.36667	869.55011	1174.93359	447.33868	863.44519	1191.33826	497.74329	798.38733	1582.56750	233.56184	1361.25903	1654.15906	217.14122	1139.58801	1667.33240	228.53981	1026.87085	1667.81995	244.23578	890.63251	1631.00085	274.22635	795.61804	1674.88318	242.71773	790.53387	1664.29553	265.65549	719.35956	1301.43066	297.64719	935.79913	1539.56311	291.77890	938.41956	1349.29419	134.87704	960.68488	1497.66772	131.18082	964.13812	1271.69006	217.27982	635.98206	1312.67212	195.91032	459.85120	1310.38440	117.82613	278.47021	1352.82446	62.35682	75.58772	1387.20679	16.77551	43.57669	1374.24573	210.88383	34.57300	1595.89392	293.36618	646.47028	1563.19617	371.85220	483.06409	1573.28882	372.77060	296.19931	1537.60229	406.78922	79.85244	1481.82959	373.39587	41.91824	1529.20911	550.50977	59.80313	1414.26758	257.33170	1677.68457																		 
286	2.850	1368.08569	347.76056	1611.62085	1500.71765	339.24338	1617.89233	1365.37231	218.04697	1573.92163	1496.54504	214.40884	1579.54333	1417.62683	180.67218	1415.69250	1413.77087	137.18317	1102.74915	1427.04944	300.69754	1336.38806	1420.57544	338.49130	1170.27820	1506.30029	115.08324	1240.57654	1270.12976	270.86908	1376.84668	1191.35278	298.57101	1189.15796	1177.74097	337.33740	1073.40479	1188.49390	410.29706	967.45313	1229.87439	471.13757	870.11096	1176.74426	456.10361	863.56189	1193.49060	507.11496	799.11920	1583.35486	240.72119	1360.18750	1654.65173	223.82800	1138.52002	1667.59583	234.71173	1025.71069	1667.88757	249.57805	889.34155	1631.01880	279.08270	794.26514	1674.84082	247.48935	789.27551	1664.26941	270.14209	718.13593	1301.83765	304.20779	934.93866	1540.01062	298.92514	937.41974	1350.09644	141.63715	959.67792	1498.49280	138.19638	963.23785	1272.19836	222.37532	635.51349	1312.89026	199.50688	459.44690	1310.51782	119.83189	278.79199	1352.73657	62.80102	76.23914	1387.03687	16.91395	44.63208	1374.55554	210.76410	34.52548	1596.19446	299.11975	645.24567	1563.02991	377.58456	481.73294	1573.53284	383.58923	295.61176	1538.11597	424.02704	80.16867	1482.22217	391.55688	41.79208	1528.60437	568.80499	62.61936	1415.88708	264.62973	1676.96118																		 
287	2.860	1369.43689	355.12674	1610.96692	1502.02161	346.40802	1616.90527	1366.49792	225.32027	1573.22852	1497.73865	221.55345	1578.55090	1418.58057	187.80617	1414.96667	1414.59241	144.04204	1101.99170	1427.77466	307.83234	1335.52966	1421.10303	345.43423	1169.37195	1507.14832	122.44955	1239.71082	1270.91931	277.90125	1376.08545	1192.31226	305.58136	1188.36731	1178.80603	344.62485	1072.66309	1189.89160	418.07776	967.16718	1231.68213	479.56635	870.41571	1178.68201	464.52682	863.52936	1195.58032	516.02350	799.57965	1584.18872	248.02451	1359.20398	1655.22375	230.82977	1137.52783	1667.96082	241.32484	1024.61707	1668.01465	255.13872	888.15173	1631.01294	284.07449	792.93036	1674.91675	252.31042	788.06433	1664.20422	274.81622	716.87970	1302.26221	310.93619	934.13788	1540.58130	306.26715	936.46765	1351.16321	148.44295	959.00519	1499.46484	145.38817	962.34863	1272.52991	227.53236	635.21600	1312.99988	203.18732	459.14569	1310.62231	121.85551	279.23236	1352.69373	63.04869	77.18061	1387.09485	17.05966	45.97658	1374.58789	210.79593	34.48253	1596.30750	305.20859	644.19940	1562.97034	383.28027	480.40552	1573.59241	393.44254	295.08041	1538.41724	439.85306	80.54888	1482.68604	408.25043	41.74203	1527.85852	585.45905	65.55362	1417.05054	271.81635	1675.98950																		 
288	2.870	1370.84497	362.44830	1610.28809	1503.39941	353.62097	1615.97327	1367.64026	232.62827	1572.56970	1498.92126	228.70415	1577.64063	1419.50671	194.89749	1414.15332	1415.38843	151.19075	1101.19788	1428.49951	314.97842	1334.71814	1421.64514	352.49054	1168.54004	1508.01685	129.83289	1238.76831	1271.72266	284.98544	1375.29700	1193.21436	312.47409	1187.47632	1179.96277	351.77863	1071.91479	1191.34290	425.60678	966.73846	1233.52002	487.65305	870.50134	1180.52954	472.51825	863.28326	1197.72314	524.47839	799.80341	1585.05615	255.50203	1358.29871	1655.75452	238.02754	1136.57153	1668.23718	247.99950	1023.53070	1668.08667	260.95474	886.96191	1630.99207	289.18542	791.55872	1674.66333	257.33237	786.80652	1663.84863	279.45877	715.44312	1302.74805	317.74188	933.28748	1541.19348	313.66309	935.54956	1352.12732	155.38243	958.27356	1500.45020	152.67178	961.51489	1273.00879	232.78813	634.86652	1313.20105	206.99229	459.04056	1310.68689	124.03814	279.67114	1352.57410	63.33542	78.07834	1386.94775	17.23685	47.21048	1374.56274	210.80510	34.42565	1596.20813	311.69046	643.27271	1562.92737	389.14832	479.11786	1573.62256	402.47134	294.50772	1538.66162	454.05966	80.85741	1483.28320	423.08047	41.58837	1526.85876	600.26160	68.48125	1418.69470	279.28461	1674.80737																		 
289	2.880	1372.20508	369.80106	1609.68896	1504.81152	360.82541	1615.05237	1368.79761	239.99869	1572.01123	1500.06592	235.97386	1576.76624	1420.51526	202.19151	1413.56409	1416.38000	158.27376	1100.56812	1429.20422	322.17096	1334.04041	1422.19043	359.62387	1167.82544	1509.03247	137.01372	1238.10388	1272.46973	291.95224	1374.56873	1194.27515	319.28601	1186.70850	1181.19275	358.88495	1071.24377	1192.88135	432.96033	966.23529	1235.42395	495.32819	870.44019	1182.39636	480.19156	862.89856	1199.78259	532.47876	799.78687	1585.91479	263.04242	1357.48645	1656.27942	245.48439	1135.64355	1668.40381	254.71187	1022.47833	1668.17139	266.85114	885.80890	1630.67163	293.90341	790.13586	1674.65222	262.60065	785.67603	1663.38293	283.91498	713.95111	1303.39282	324.94714	932.65839	1541.90942	321.14371	934.70288	1353.10449	162.56050	957.48724	1501.48230	159.92905	960.77789	1273.06433	238.32635	634.72034	1313.30969	210.83009	458.87314	1310.69946	126.27396	280.34076	1352.62939	64.07076	79.12172	1386.83643	17.46486	48.69896	1374.26294	210.91014	34.37758	1596.19812	318.76584	642.31879	1562.89380	395.18106	477.93274	1573.60461	410.78763	293.91293	1538.88354	466.59781	81.10620	1483.74353	436.03873	41.33245	1525.80786	613.17682	70.96194	1420.01331	286.47598	1674.34460																		 
290	2.890	1373.62170	377.25525	1609.16309	1506.21362	368.11267	1614.18628	1370.00525	247.42355	1571.56763	1501.24304	243.27290	1575.94177	1421.58826	209.31712	1412.96863	1417.45923	165.44403	1099.92847	1429.85522	329.37140	1333.39160	1422.69165	366.85724	1167.20276	1510.05994	144.68028	1237.24377	1273.29138	298.90344	1373.89246	1195.34814	326.02985	1185.88611	1182.42493	365.57834	1070.28284	1194.41577	440.09079	965.62909	1237.20862	502.70901	870.18750	1184.34131	487.55087	862.36572	1201.83459	540.04291	799.58984	1586.82031	270.76813	1356.71924	1656.83801	253.21727	1134.77661	1668.67676	261.91522	1021.53857	1668.30981	273.05893	884.82208	1630.60352	299.26016	788.92487	1674.84119	267.98651	784.70673	1663.37683	289.00778	712.92059	1304.06042	331.94690	931.94342	1542.72253	328.69113	933.88733	1354.27393	169.77553	957.08057	1502.60706	167.34619	960.17145	1273.79028	243.62915	634.61523	1313.42712	215.13306	458.90387	1310.71399	128.62566	281.08005	1352.32275	64.35139	80.45222	1386.61584	17.72095	50.25472	1374.57629	210.82735	34.28119	1596.00244	325.75845	641.46667	1562.68738	401.62170	476.78061	1573.53674	418.51138	293.28992	1539.06665	477.25638	81.10844	1484.19653	446.97531	40.90861	1524.87854	624.10980	72.46922	1421.32556	293.79773	1673.66736																		 
291	2.900	1375.00269	384.66589	1608.70959	1507.62158	375.43759	1613.38000	1371.22986	254.85762	1571.22595	1502.47180	250.57361	1575.21545	1422.64636	216.58629	1412.41150	1418.69275	172.74133	1099.41357	1430.57324	336.64337	1332.79016	1423.27661	374.16437	1166.69788	1511.22681	152.34679	1236.59900	1274.12341	305.79822	1373.31775	1196.46289	332.69022	1185.21069	1183.75842	372.43698	1069.53735	1195.98816	446.98871	964.96985	1239.02246	509.68094	869.77209	1186.15100	494.50049	861.71490	1203.86902	547.17578	799.16534	1587.72827	278.60861	1356.08984	1657.43250	261.12442	1134.00305	1668.93066	269.30182	1020.73834	1668.41589	279.47406	883.90839	1630.53125	304.76361	787.84320	1674.88977	273.77124	783.74121	1663.39990	294.22159	711.91656	1304.94019	339.17572	931.38611	1543.58838	336.30255	933.07446	1355.41687	177.16011	956.66742	1503.77502	174.94507	959.62421	1274.45947	249.14496	634.54553	1313.71179	219.45279	459.06140	1310.72791	131.29936	281.84311	1352.06506	64.91157	81.72786	1386.43945	17.92555	52.15948	1374.56116	210.85213	34.21146	1595.73499	333.20438	640.86481	1562.56824	408.36224	475.84067	1573.65967	426.18137	292.69687	1538.95691	486.04135	80.71335	1484.22546	455.73160	40.41776	1523.98047	632.94232	72.59035	1423.00439	301.29144	1673.23145																		 
